<svg width="699" height="595" viewBox="0 0 699 595" fill="none" xmlns="http://www.w3.org/2000/svg">
<g clip-path="url(#clip0_2209_46)">
<path d="M432.999 283.962C396.361 283.963 397.534 283.962 360.5 283.962L334.031 258.5C334.031 258.5 334.018 262.274 334.031 252.659C334.044 242.996 334.193 233.328 333.956 223.67C333.502 205.179 319.37 187.581 301.869 183.652C298.822 182.968 295.595 182.876 292.451 182.872C243.134 182.818 193.817 182.823 144.5 182.815C143.196 182.815 141.892 182.815 139.828 182.815C140.878 180.785 141.608 179.182 142.501 177.676C178.804 116.381 232.168 78.0872 301.893 65.5583C386.738 50.3126 459.717 75.2145 518.369 138.781C548.182 171.093 565.196 209.939 571.248 253.547C571.673 256.607 570.947 258.574 568.552 260.384C559.12 267.51 549.849 274.853 540.32 281.845C538.498 283.182 535.777 283.87 533.467 283.879C500.145 284.005 466.822 283.963 432.999 283.962Z" fill="#F6F6F6"/>
<path d="M11.1992 424.241L18.5 410.075H42.5734C42.5734 410.075 40.3334 413.462 39.3848 414.864C30.9568 427.314 22.9839 439.974 20.5946 455.237C18.334 469.677 23.6558 480.399 36.7379 486.896C49.5122 493.24 63.3801 495.217 77.4019 495.937C113.951 497.814 149.828 492.431 185.536 485.46C228.693 477.035 269.896 462.367 310.259 445.385C334.915 435.012 358.915 423.083 383.245 411.928C385.295 410.987 387.606 410.067 389.798 410.063C442.454 409.974 495.11 410.01 547.766 410.031C548.405 410.031 549.044 410.118 550.467 410.222C549.177 412.568 548.164 414.576 547.005 416.496C507.061 482.599 448.796 521.177 372.255 531.014C322.346 537.429 275.238 527.211 231.044 503.187C228.595 501.855 224.979 501.338 222.282 501.992C181.241 511.951 139.808 519.129 97.4899 520.244C78.2631 520.75 59.1957 519.477 40.6087 514.016C38.5364 513.408 36.4828 512.705 34.4772 511.904C6.29517 500.645 -5.29149 477.677 2.50317 447.416C4.51929 439.589 11.1992 424.241 11.1992 424.241Z" fill="#F5F6F5"/>
<path d="M646.25 208.233C656.415 196.23 665.433 183.873 671.245 169.521C673.039 165.09 674.441 160.391 675.232 155.683C677.713 140.92 671.779 129.517 658.206 122.987C644.014 116.16 628.721 115.167 613.319 115.548C590.213 116.12 567.674 120.216 545.632 127.127C543.571 127.774 530 132.315 530 132.315L513.5 116C513.5 116 528.43 111.535 534.009 109.925C544.703 106.839 555.476 103.93 566.358 101.611C591.079 96.3436 616.064 93.8343 641.287 97.0411C648.661 97.9785 656.092 99.5995 663.107 102.031C692.109 112.084 704.724 135.577 697.546 165.466C692.649 185.861 681.553 203.012 668.706 219.102C649.803 242.777 627.476 263.017 604.146 282.187C602.867 283.238 600.902 283.95 599.246 283.971C587.104 284.119 574.959 284.051 561.609 284.051C591.515 259.772 621.467 237.121 646.25 208.233Z" fill="#F4F4F4"/>
<path d="M327.998 410.036C336.577 410.036 344.656 410.036 352.735 410.036C352.825 410.373 352.916 410.71 353.006 411.047C340.809 416.536 328.644 422.098 316.409 427.501C275.696 445.48 233.881 460.246 190.463 470.228C188.433 470.695 185.319 470.07 183.832 468.719C165.808 452.342 151.03 433.369 139.45 411.927C139.236 411.53 139.246 411.012 139.047 410.036C202.019 410.036 264.759 410.036 327.998 410.036Z" fill="#F5F5F5"/>
<path d="M43.3 239.6V231.1H68.3V256C68.3 258.267 67.8667 260.433 67 262.5C66.2 264.567 65.0333 266.367 63.5 267.9C62.0333 269.433 60.2667 270.667 58.2 271.6C56.1333 272.533 53.8333 273 51.3 273H35.3C32.9 273 30.6667 272.567 28.6 271.7C26.6 270.767 24.8333 269.533 23.3 268C21.7667 266.467 20.5667 264.667 19.7 262.6C18.8333 260.533 18.4 258.333 18.4 256V215C18.4 212.867 18.8333 210.8 19.7 208.8C20.5667 206.733 21.7667 204.9 23.3 203.3C24.8333 201.7 26.6333 200.433 28.7 199.5C30.7667 198.5 32.9667 198 35.3 198H51.2C53.4 198 55.5333 198.5 57.6 199.5C59.6667 200.433 61.5 201.7 63.1 203.3C64.7 204.833 65.9667 206.633 66.9 208.7C67.8333 210.7 68.3 212.767 68.3 214.9H60.1C60.1 212.167 59.5 210.067 58.3 208.6C57.1 207.067 55.4667 206.3 53.4 206.3H35V264.6H51.7V239.6H43.3ZM111.099 273C108.833 273 106.666 272.567 104.599 271.7C102.599 270.767 100.799 269.533 99.1992 268C97.6659 266.4 96.4326 264.6 95.4992 262.6C94.5659 260.533 94.0992 258.367 94.0992 256.1V214.9C94.0992 212.767 94.5326 210.7 95.3992 208.7C96.3326 206.633 97.5659 204.833 99.0992 203.3C100.633 201.7 102.433 200.433 104.499 199.5C106.566 198.5 108.766 198 111.099 198H126.999C129.333 198 131.533 198.5 133.599 199.5C135.666 200.433 137.466 201.7 138.999 203.3C140.533 204.833 141.733 206.633 142.599 208.7C143.533 210.7 143.999 212.767 143.999 214.9V256.1C143.999 258.367 143.533 260.533 142.599 262.6C141.666 264.6 140.399 266.4 138.799 268C137.266 269.533 135.466 270.767 133.399 271.7C131.399 272.567 129.266 273 126.999 273H111.099ZM127.399 264.6V206.3H110.699V264.6H127.399ZM186.798 273C184.532 273 182.365 272.567 180.298 271.7C178.298 270.767 176.498 269.533 174.898 268C173.365 266.4 172.132 264.6 171.198 262.6C170.265 260.533 169.798 258.367 169.798 256.1V214.9C169.798 212.767 170.232 210.7 171.098 208.7C172.032 206.633 173.265 204.833 174.798 203.3C176.332 201.7 178.132 200.433 180.198 199.5C182.265 198.5 184.465 198 186.798 198H202.698C205.032 198 207.232 198.5 209.298 199.5C211.365 200.433 213.165 201.7 214.698 203.3C216.232 204.833 217.432 206.633 218.298 208.7C219.232 210.7 219.698 212.767 219.698 214.9V256.1C219.698 258.367 219.232 260.533 218.298 262.6C217.365 264.6 216.098 266.4 214.498 268C212.965 269.533 211.165 270.767 209.098 271.7C207.098 272.567 204.965 273 202.698 273H186.798ZM203.098 264.6V206.3H186.398V264.6H203.098ZM245.498 273V198H278.398C280.598 198 282.731 198.467 284.798 199.4C286.864 200.267 288.664 201.5 290.198 203.1C291.798 204.633 293.064 206.433 293.998 208.5C294.931 210.567 295.398 212.733 295.398 215V256C295.398 258.267 294.931 260.433 293.998 262.5C293.064 264.567 291.798 266.367 290.198 267.9C288.664 269.433 286.864 270.667 284.798 271.6C282.731 272.533 280.598 273 278.398 273H245.498ZM262.098 264.6H278.798V206.3H262.098V264.6ZM18.4 330.9V324.9C18.4 322.5 18.8333 320.3 19.7 318.3C20.6333 316.233 21.8667 314.433 23.4 312.9C25 311.367 26.8333 310.167 28.9 309.3C31.0333 308.433 33.3 308 35.7 308H42.8C45.1333 308 47.3333 308.467 49.4 309.4C51.4667 310.267 53.2667 311.467 54.8 313C56.4 314.467 57.6333 316.233 58.5 318.3C59.4333 320.3 59.9 322.433 59.9 324.7H51.7C51.7 322.033 50.8 319.967 49 318.5C47.2667 316.967 44.8 316.2 41.6 316.2H35V328C35 329 35.6 330.2 36.8 331.6C38.0667 333 39.6 334.567 41.4 336.3C43.2667 337.967 45.2667 339.767 47.4 341.7C49.5333 343.633 51.5 345.633 53.3 347.7C55.1667 349.7 56.7 351.767 57.9 353.9C59.1667 355.967 59.8 358 59.8 360V366.1C59.8 368.367 59.3667 370.533 58.5 372.6C57.7 374.6 56.5333 376.4 55 378C53.5333 379.533 51.7333 380.767 49.6 381.7C47.5333 382.567 45.2333 383 42.7 383H35.7C33.3 383 31.0333 382.567 28.9 381.7C26.8333 380.767 25 379.533 23.4 378C21.8667 376.467 20.6333 374.7 19.7 372.7C18.8333 370.633 18.4 368.433 18.4 366.1H26.8C26.8 368.633 27.6 370.7 29.2 372.3C30.8667 373.9 33.0333 374.7 35.7 374.7H43.3V362.5C43.3 361.3 42.6667 359.933 41.4 358.4C40.2 356.8 38.6667 355.133 36.8 353.4C35 351.667 33 349.867 30.8 348C28.6667 346.067 26.6667 344.133 24.8 342.2C23 340.267 21.4667 338.367 20.2 336.5C19 334.567 18.4 332.7 18.4 330.9ZM127.105 308V316.3H110.405V383H93.8055V316.3H77.1055V308H127.105ZM161.805 308H177.205C179.205 308 181.239 308.467 183.305 309.4C185.372 310.333 187.205 311.6 188.805 313.2C190.472 314.733 191.839 316.533 192.905 318.6C193.972 320.6 194.505 322.7 194.505 324.9V383C193.772 383 192.572 383 190.905 383C189.305 383.067 187.605 383.1 185.805 383.1C184.072 383.1 182.439 383.1 180.905 383.1C179.372 383.1 178.339 383.067 177.805 383V349.7H161.405V383H144.805V324.9C144.805 322.7 145.305 320.567 146.305 318.5C147.372 316.433 148.705 314.633 150.305 313.1C151.972 311.567 153.805 310.333 155.805 309.4C157.872 308.467 159.872 308 161.805 308ZM161.405 341.2H177.805V316.2H161.405V341.2ZM236.805 341.2H253.505V316.2H236.805V341.2ZM220.205 383V308H253.505C256.038 308 258.305 308.4 260.305 309.2C262.371 310 264.138 311.133 265.605 312.6C267.071 314.067 268.171 315.833 268.905 317.9C269.705 319.967 270.105 322.233 270.105 324.7V331.9C270.105 334.767 269.638 337.1 268.705 338.9C267.771 340.633 266.738 342 265.605 343C264.538 343.933 263.538 344.567 262.605 344.9C261.671 345.233 261.205 345.4 261.205 345.4C261.205 345.4 261.671 345.633 262.605 346.1C263.538 346.5 264.538 347.267 265.605 348.4C266.738 349.467 267.771 350.933 268.705 352.8C269.638 354.6 270.105 356.933 270.105 359.8V383H253.505V349.7H236.805V383H220.205ZM337.504 308V316.3H320.804V383H304.204V316.3H287.504V308H337.504ZM412.535 374.7H437.535V383H395.935V308H412.535V374.7ZM480.536 308H495.936C497.936 308 499.969 308.467 502.036 309.4C504.103 310.333 505.936 311.6 507.536 313.2C509.203 314.733 510.569 316.533 511.636 318.6C512.703 320.6 513.236 322.7 513.236 324.9V383C512.503 383 511.303 383 509.636 383C508.036 383.067 506.336 383.1 504.536 383.1C502.803 383.1 501.169 383.1 499.636 383.1C498.103 383.1 497.069 383.067 496.536 383V349.7H480.136V383H463.536V324.9C463.536 322.7 464.036 320.567 465.036 318.5C466.103 316.433 467.436 314.633 469.036 313.1C470.703 311.567 472.536 310.333 474.536 309.4C476.603 308.467 478.603 308 480.536 308ZM480.136 341.2H496.536V316.2H480.136V341.2ZM540.235 383V308H573.335C575.602 308 577.768 308.4 579.835 309.2C581.902 310 583.668 311.133 585.135 312.6C586.668 314.067 587.868 315.833 588.735 317.9C589.668 319.967 590.135 322.267 590.135 324.8V333.7C590.135 336.1 589.668 338.067 588.735 339.6C587.868 341.133 586.902 342.333 585.835 343.2C584.768 344 583.768 344.567 582.835 344.9C581.968 345.233 581.535 345.4 581.535 345.4C581.535 345.4 581.968 345.6 582.835 346C583.768 346.4 584.768 347.1 585.835 348.1C586.902 349.033 587.868 350.3 588.735 351.9C589.668 353.433 590.135 355.333 590.135 357.6V366.1C590.135 368.3 589.735 370.433 588.935 372.5C588.135 374.567 587.002 376.367 585.535 377.9C584.068 379.433 582.302 380.667 580.235 381.6C578.168 382.533 575.868 383 573.335 383H540.235ZM556.835 374.6H573.535V349.6H556.835V374.6ZM556.835 341.2H573.535V316.2H556.835V341.2ZM614.634 330.9V324.9C614.634 322.5 615.068 320.3 615.934 318.3C616.868 316.233 618.101 314.433 619.634 312.9C621.234 311.367 623.068 310.167 625.134 309.3C627.268 308.433 629.534 308 631.934 308H639.034C641.368 308 643.568 308.467 645.634 309.4C647.701 310.267 649.501 311.467 651.034 313C652.634 314.467 653.868 316.233 654.734 318.3C655.668 320.3 656.134 322.433 656.134 324.7H647.934C647.934 322.033 647.034 319.967 645.234 318.5C643.501 316.967 641.034 316.2 637.834 316.2H631.234V328C631.234 329 631.834 330.2 633.034 331.6C634.301 333 635.834 334.567 637.634 336.3C639.501 337.967 641.501 339.767 643.634 341.7C645.768 343.633 647.734 345.633 649.534 347.7C651.401 349.7 652.934 351.767 654.134 353.9C655.401 355.967 656.034 358 656.034 360V366.1C656.034 368.367 655.601 370.533 654.734 372.6C653.934 374.6 652.768 376.4 651.234 378C649.768 379.533 647.968 380.767 645.834 381.7C643.768 382.567 641.468 383 638.934 383H631.934C629.534 383 627.268 382.567 625.134 381.7C623.068 380.767 621.234 379.533 619.634 378C618.101 376.467 616.868 374.7 615.934 372.7C615.068 370.633 614.634 368.433 614.634 366.1H623.034C623.034 368.633 623.834 370.7 625.434 372.3C627.101 373.9 629.268 374.7 631.934 374.7H639.534V362.5C639.534 361.3 638.901 359.933 637.634 358.4C636.434 356.8 634.901 355.133 633.034 353.4C631.234 351.667 629.234 349.867 627.034 348C624.901 346.067 622.901 344.133 621.034 342.2C619.234 340.267 617.701 338.367 616.434 336.5C615.234 334.567 614.634 332.7 614.634 330.9Z" fill="#F4F3F6" fill-opacity="0.9"/>
</g>
<defs>
<clipPath id="clip0_2209_46">
<rect width="699" height="595" fill="white"/>
</clipPath>
</defs>
</svg>
